PathFileType	4	(X/Y/Z)	pose_F01_0-89.trc
DataRate	CameraRate	NumFrames	NumMarkers	Units	OrigDataRate	OrigDataStartFrame	OrigNumFrames
30	30	8	21	m	30	14	89
Frame#	Time	CHip			RHip			RKnee			RAnkle			RBigToe			RSmallToe			RHeel			LHip			LKnee			LAnkle			LBigToe			LSmallToe			LHeel			Neck			Nose			RShoulder			RElbow			RWrist			LShoulder			LElbow			LWrist			
		X1	Y1	Z1	X2	Y2	Z2	X3	Y3	Z3	X4	Y4	Z4	X5	Y5	Z5	X6	Y6	Z6	X7	Y7	Z7	X8	Y8	Z8	X9	Y9	Z9	X10	Y10	Z10	X11	Y11	Z11	X12	Y12	Z12	X13	Y13	Z13	X14	Y14	Z14	X15	Y15	Z15	X16	Y16	Z16	X17	Y17	Z17	X18	Y18	Z18	X19	Y19	Z19	X20	Y20	Z20	X21	Y21	Z21	
14	0.4666666666666667	-0.24594692786094677	1.882462687567053	-0.5871116466496183	-0.25909184285250947	1.8783304912372842	-0.5210713088130418	-0.19584529631436082	1.7290167387203068	-0.6120090556497891													-0.22633398035410798	1.8857500792202406	-0.6540421005496807	-0.2372260063273092	1.7263439184495115	-0.6536935177372923				-0.44124918619919706	1.521230380701598	-0.9745484938546997	-0.4407813295869996	1.5239691070896415	-0.972902202689888				-0.24894492776348226	2.0572168248369422	-0.6084530458989528	-0.2343808531011888	2.1291784650178514	-0.5795667340442807	-0.2743003116965115	2.0522105288571004	-0.514495510917012	-1.6709866752422449	1.8746851657186034	1.0197970617663878	-0.27919885241229275	1.8858173007889467	-0.4468803804749868	-0.22371133089500891	2.061507994147079	-0.7031396624840761	-0.21742175971155092	1.973189607501968	-0.7319520144498324	-0.2067097989500689	1.8866766684174627	-0.7388614203011057
15	0.5	-0.24594692786094677	1.882462687567053	-0.5871116466496183	-0.25909184285250947	1.8783304912372842	-0.5210713088130418	-0.19584529631436082	1.7290167387203068	-0.6120090556497891													-0.22633398035410798	1.8857500792202406	-0.6540421005496807	-0.2372260063273092	1.7263439184495115	-0.6536935177372923				-0.44124918619919706	1.521230380701598	-0.9745484938546997	-0.4407813295869996	1.5239691070896415	-0.972902202689888				-0.24894492776348226	2.0572168248369422	-0.6084530458989528	-0.2343808531011888	2.1291784650178514	-0.5795667340442807	-0.2743003116965115	2.0522105288571004	-0.514495510917012	-1.6709866752422449	1.8746851657186034	1.0197970617663878	-0.27919885241229275	1.8858173007889467	-0.4468803804749868	-0.22371133089500891	2.061507994147079	-0.7031396624840761	-0.21742175971155092	1.973189607501968	-0.7319520144498324	-0.2067097989500689	1.8866766684174627	-0.7388614203011057
16	0.5333333333333333	-0.24375735527690484	1.8806491829577456	-0.5890519357939068	-0.25889091125196906	1.8770155080471136	-0.5208546324956937	-0.19584529631436082	1.7290167387203068	-0.6120090556497891													-0.2261534534351059	1.883832806327579	-0.6539432840019481	-0.2372260063273092	1.7263439184495115	-0.6536935177372923				-0.44124918619919706	1.521230380701598	-0.9745484938546997	-0.4407813295869996	1.5239691070896415	-0.972902202689888				-0.24894167457658567	2.0571841442156593	-0.6084548798151129	-0.23440420722107302	2.129189785305189	-0.5795414290810406	-0.27419332398769325	2.0533027769419396	-0.5143823371125698	-1.6847771567163936	1.87608507773558	1.0469421264999585	-0.2808596140393757	1.889961515345725	-0.44516807807710296	-0.22361369578780346	2.0613518685073497	-0.7026204814667886	-0.21755401713872854	1.9707372093021696	-0.7315932311537903	-0.2066153276436277	1.8838573689922138	-0.7387547996567232
17	0.5666666666666667	-0.24600586098734578	1.8794510789259815	-0.5868450857021965	-0.25916535678707564	1.875144067035109	-0.5207006570838406	-0.19584529631436082	1.7290167387203068	-0.6120090556497891													-0.2272338747789862	1.8826315725701754	-0.6568767945907625	-0.2372260063273092	1.7263439184495115	-0.6536935177372923				-0.44124918619919706	1.521230380701598	-0.9745484938546997	-0.4407813295869996	1.5239691070896415	-0.972902202689888				-0.24984377627880983	2.0573380391064404	-0.6113677213413167	-0.23438523025555227	2.1291801239801043	-0.5795727159319748	-0.27426733136184867	2.053253451404224	-0.5145479397712459	-0.27823195355317937	1.961778408447743	-0.4797164191195754	-0.2791047959108375	1.878136158241787	-0.446627160531368	-0.22363052382954635	2.062661153983672	-0.7029570032460136	-0.2174261235078813	1.9716996546551524	-0.7317199628847767	-0.20710646549367492	1.8875814839851526	-0.7418875567289643
18	0.6	-0.24379692977807418	1.8809496528778846	-0.5890879467250012	-0.2590366730752593	1.878375733629971	-0.5210688845867333	-0.19584529631436082	1.7290167387203068	-0.6120090556497891													-0.22702470172063005	1.88405353753218	-0.6569711829529541	-0.2369889217567256	1.7267112186454574	-0.6525834179148143				-0.44124918619919706	1.521230380701598	-0.9745484938546997	-0.4407813295869996	1.5239691070896415	-0.972902202689888				-0.24890621084302728	2.0572248099913386	-0.6083886275765907	-0.23440614862245285	2.129179568086933	-0.5795656729071043	-0.27224622804486825	2.053430367811597	-0.5164756799965435	-0.27836064054841525	1.960158986320658	-0.4795605965243018	-0.2769667817622732	1.878898884900102	-0.43996362303697734	-0.22364778535207647	2.062731888538727	-0.7029163454518896	-0.21746123459852598	1.9722957200984728	-0.7315380930489007	-0.20605898622925864	1.8872218931105726	-0.7390748330008471
19	0.6333333333333333	-0.2436658213727484	1.879320295795333	-0.5889075893127114	-0.25880486445434686	1.8751639929568167	-0.520631654774553	-0.19584529631436082	1.7290167387203068	-0.6120090556497891													-0.22690758530863425	1.882634531785869	-0.6568562560410951	-0.236751837186142	1.727078518841403	-0.6514733180923364				-0.44124918619919706	1.521230380701598	-0.9745484938546997	-0.4407813295869996	1.5239691070896415	-0.972902202689888				-0.24891479572410244	2.0571718028795396	-0.6084443716668875	-0.23440585906564096	2.130379195144861	-0.5801949096355331	-0.27232166926286755	2.0522490796781723	-0.5166683726879903	-0.2778147280512255	1.959557434235326	-0.4769994849069356	-0.27420047920274	1.8762755573750032	-0.4213686254916305	-0.223638123876958	2.062648913207408	-0.7029204592187038	-0.2175190269617433	1.9729988093856503	-0.7319520805823388	-0.20733641767895836	1.8851185015872145	-0.7421953413092113
20	0.6666666666666666	-0.24618620834417018	1.887287709810502	-0.5877925113163568	-0.2613004926303595	1.8831592885138926	-0.5197045942082952	-0.19584529631436082	1.7290167387203068	-0.6120090556497891													-0.22940208161573092	1.8902359931376684	-0.6555572494077135	-0.2365147526155584	1.727445819037349	-0.6503632182698584				-0.44124918619919706	1.521230380701598	-0.9745484938546997	-0.4407813295869996	1.5239691070896415	-0.972902202689888				-0.24803648921512167	2.0571996700465465	-0.6053568013700634	-0.23251351660535213	2.1317311529717102	-0.582880262707873	-0.2732190441345501	2.0532635017242944	-0.5113708519984939	-0.28190821602498667	1.9752685055259216	-0.46818783691114796	-0.28545789601211274	1.908952663574334	-0.4040291077186129	-0.22362986387358488	2.064148045502036	-0.7032630138006783	-0.21508756666042872	1.9769586869373523	-0.7439284548940243	-0.20366991878160584	1.8943177207543347	-0.7473983152214336
21	0.7	-0.24479526603804821	1.8861442695392	-0.5843073558954889	-0.2608292451783108	1.88247540763905	-0.5193422012554451	-0.19584529631436082	1.7290167387203068	-0.6120090556497891													-0.22617259217236552	1.8903055518538194	-0.654442241611907	-0.23693226256965094	1.7261825691339034	-0.6476949227783084				-0.44124918619919706	1.521230380701598	-0.9745484938546997	-0.4407813295869996	1.5239691070896415	-0.972902202689888				-0.2468456094163513	2.0595171035635236	-0.602093279484185	-0.23532695221744124	2.1342654181405356	-0.5841404603323606	-0.2699892005400344	2.0555482751954726	-0.510079083059541	-0.28098961000347605	1.9833116275201006	-0.42801366855517614	-0.2763384312318623	1.9263282280704146	-0.314323827070401	-0.222674018988186	2.066735369573947	-0.7006957537986395	-0.21097889164957204	1.9883348786793344	-0.7727852225087598	-0.186825713962229	1.9151540462402983	-0.7632704551627552
